<svg width="451" height="430" viewBox="0 0 451 430" xmlns="http://www.w3.org/2000/svg" xmlns:xlink="http://www.w3.org/1999/xlink"><title>Group 3 + Group 90 Copy</title><defs><path d="M163.27.32c-10.045 1.037-17.937 5.35-27.323 14.926-4.156 4.24-5.2 5.43-12.312 14.05-10.075 12.21-14.725 16.873-21.032 21.09-3.885 2.598-11.65 6.45-18.233 9.047-2.64 1.04-7.634 3.006-11.126 4.377-23.61 9.275-32.51 17.51-36.765 34.017-1.394 5.402-2.178 11.902-2.948 24.418-1.207 19.633-2.473 26.325-6.776 35.83-1.487 3.285-5.005 9.234-10.378 17.547-8.626 13.344-11.695 18.99-13.924 25.615-1.6 4.755-2.15 7.467-2.36 11.657-.3 5.956.79 11.657 3.467 18.16 2.513 6.103 4.706 10 11.875 21.106 7.683 11.902 10.712 17.22 12.822 22.516 2.813 7.06 4.19 15.123 5.11 29.94.58 9.356.945 13.866 1.425 17.608 2.6 20.277 9.9 30.288 28.467 39.032 1.92.905 8.22 3.516 14 5.802 12.27 4.854 16.67 6.778 20.89 9.128 8.68 4.833 13.955 9.814 26.386 24.907 6.29 7.64 11.474 13.397 14.47 16.074 11.174 9.988 21.045 13.22 35.292 11.552 5.304-.62 9.858-1.584 21.788-4.603 19.562-4.95 26.238-5.794 36.436-4.605 5.588.65 10.106 1.6 22.59 4.743 16.474 4.146 22.745 5.15 29.98 4.802 5.963-.288 9.83-1.29 15.173-3.926 6.53-3.223 13.978-9.835 22.066-19.59l8.02-9.663c5.025-6.043 12.637-13.558 16.333-16.122 5.738-3.98 12.27-7.13 25.094-12.1 12.177-4.716 17.252-6.977 22.313-9.94 13.417-7.857 19.416-17.67 21.7-35.492.48-3.742.844-8.252 1.422-17.608 1.507-24.357 3.42-30.053 17.267-51.383 9.876-15.215 13.554-22.672 15.37-31.167.69-3.22.77-11.068.148-14.234-.71-3.6-2.946-9.94-4.924-13.957-2.045-4.15-5.774-10.4-11.078-18.56-13.645-20.993-15.33-26.288-16.947-53.222-.76-12.67-1.554-18.983-3.133-24.94-3.48-13.126-10.402-21.022-24.65-28.12-4.727-2.355-7.416-3.483-20.58-8.64-3.988-1.56-9.578-3.98-12.394-5.367-11.318-5.57-16.395-10.022-29.28-25.667-7.226-8.773-9.94-11.813-14.296-16.015-8.58-8.275-16.164-12.084-25.99-13.054-6.61-.653-14.372.42-28.217 3.895-21.602 5.424-23.528 5.758-33.223 5.758-9.733 0-11.62-.328-33.067-5.736C178.165.658 170.255-.403 163.27.32zm31.676 87.763c12.486 6.8 14.114 7.775 14.53 8.7.163.367.21 14.48.12 35.033-.138 30.585-.102 34.5.323 35.14.264.4 2.023 1.536 3.94 2.546 1.9 1.003 8.915 4.937 15.56 8.728l12.1 6.902.2-11.903c.11-6.536.25-11.953.31-12.01.06-.06 8.976-5.3 19.793-11.628l19.686-11.52 26.144 14.572.077 85.265c.077 83.47.067 85.284-.502 86.215-.947 1.548-5.725 4.507-23.99 14.856-4.264 2.418-8.923 5.17-10.4 6.143-1.637 1.08-3.247 1.883-4.155 2.07-1.324.275-1.685.217-3.354-.536-1.02-.46-2.5-1.323-3.26-1.898-2.655-2.013-5.316-3.69-9.364-5.898-10.755-5.868-10.82-5.91-11.237-7.59-.144-.573-.184-16.288-.09-34.94.155-31.075.127-33.96-.34-34.664-.29-.435-2.24-1.68-4.497-2.87-2.19-1.153-9.163-5.06-15.468-8.665-6.305-3.605-11.565-6.565-11.666-6.565-.103 0-.187 5.323-.187 11.826 0 7.822-.112 12.033-.33 12.44-.43.8-3.873 2.956-6.778 4.246-1.282.57-4.667 2.435-7.572 4.174-2.883 1.726-8.25 4.867-11.898 6.963-3.647 2.095-7.46 4.338-8.452 4.97-.99.628-2.382 1.41-3.075 1.723-2.538 1.148-2.814 1.047-12.023-4.378-4.636-2.73-10.038-5.895-11.99-7.024-2.01-1.16-3.724-2.375-3.944-2.79-.6-1.14-.395-170.01.208-171.175.33-.64 4.045-2.827 16.22-9.556 8.685-4.8 17.532-9.7 19.657-10.89 2.132-1.195 3.974-2.17 4.11-2.18.136-.007 5.346 2.763 11.59 6.163z" id="a"/><path id="c" d="M0 82.918v82.95l3.786 1.947c2.074 1.067 6.567 3.515 9.936 5.414 3.368 1.897 6.283 3.465 6.443 3.465.19 0 .26-11.887.2-33.36-.086-31.23-.057-33.425.45-34.358.447-.826.725-.997 1.622-.997 1.476 0 2.627.53 6.52 3.004 1.833 1.163 6.336 3.83 9.983 5.908 3.66 2.087 14 8.018 23.024 13.206 9.024 5.19 20.473 11.717 25.496 14.537 9.024 5.068 10.25 5.862 10.895 7.06.386.715.337 38.406-.073 56.536-.165 7.303-.146 11.556.056 12.288.17.613.757 1.533 1.298 2.034.77.71 18.327 10.667 19.687 11.164.165.06.278-33.244.278-82.418 0-65.648-.077-82.582-.385-82.826-.213-.17-4.403-2.604-9.348-5.43-4.945-2.827-9.42-5.398-9.982-5.737l-1.02-.613.046 32.778c.027 18.037-.045 33.26-.16 33.85-.335 1.75-.916 2.294-2.42 2.27-1.6-.024-3.06-.75-7.633-3.797-1.96-1.305-6.12-3.812-9.27-5.588l-12.95-7.295c-8.5-4.788-20.552-11.77-30.472-17.65-3.894-2.31-8.412-4.86-10.044-5.67-3.43-1.703-4.77-2.82-5.157-4.295-.16-.612-.195-15.522-.08-34.664.11-18.466.093-33.88-.038-34.234C20.5 11.896 8.53 4.7.215.09.096.022 0 37.3 0 82.917z"/></defs><g fill="none" fill-rule="evenodd"><g transform="translate(.206)"><mask id="b" fill="#fff"><use xlink:href="#a"/></mask><path d="M.037.098H450.44v429.04H.038V.098z" fill="#2C1137" mask="url(#b)"/></g><g transform="translate(147.002 108.594)"><mask id="d" fill="#fff"><use xlink:href="#c"/></mask><path d="M-.012.06h119.637v233.68H-.012V.06z" fill="#2C1137" mask="url(#d)"/></g></g></svg>