<svg width="1953" height="248" viewBox="0 0 1953 248" xmlns="http://www.w3.org/2000/svg"><title>HARROW.IO</title><path d="M.167 245.266V6.41h40.32v103.54h118.575V6.41h40.322v238.856h-40.322v-97.73H40.488v97.73H.168zm288.777-54.332l-23.92 54.332H221.97L327.214 6.41h43.056l105.25 238.857h-43.056l-23.92-54.332h-119.6zm103.196-37.246l-43.397-98.412-43.397 98.412h86.794zm296.637-69.71c0 39.412-17.2 64.243-51.598 74.494l62.53 86.794h-51.256l-57.065-80.302h-52.967v80.302h-40.32V6.41h88.843c36.45 0 62.533 6.152 78.252 18.453 15.718 12.302 23.577 32.007 23.577 59.116zm-53.65 33.83c8.202-7.062 12.303-18.395 12.303-34s-4.214-26.31-12.643-32.12c-8.43-5.81-23.464-8.714-45.106-8.714h-51.255V128.4h50.232c22.78 0 38.27-3.53 46.472-10.592zm291.854-33.83c0 39.412-17.197 64.243-51.596 74.494l62.533 86.794H886.66l-57.066-80.302H776.63v80.302h-40.323V6.41h88.844c36.45 0 62.535 6.152 78.254 18.453 15.72 12.302 23.578 32.007 23.578 59.116zm-53.646 33.83c8.2-7.062 12.3-18.395 12.3-34s-4.213-26.31-12.642-32.12c-8.428-5.81-23.463-8.714-45.105-8.714H776.63V128.4h50.23c22.78 0 38.27-3.53 46.473-10.592zm202.675-80.3c-23.693 0-43.683 8.427-59.97 25.285-16.29 16.858-24.434 37.303-24.434 61.337 0 24.034 8.144 44.48 24.433 61.337 16.287 16.858 36.277 25.287 59.97 25.287s43.68-8.43 59.97-25.287c16.287-16.858 24.43-37.303 24.43-61.337 0-24.034-8.143-44.48-24.43-61.337-16.29-16.858-36.28-25.286-59.97-25.286zm0 210.15c-35.54 0-65.38-11.79-89.53-35.367-24.147-23.576-36.22-52.963-36.22-88.16s12.073-64.582 36.22-88.16C1010.628 12.39 1040.47.6 1076.01.6c35.538 0 65.38 11.79 89.528 35.367 24.147 23.577 36.22 52.964 36.22 88.16s-12.073 64.583-36.22 88.16c-24.148 23.58-53.99 35.368-89.528 35.368zm224.89-69.367l53.306-171.88h36.22l53.308 171.88 60.14-171.88h43.398l-83.376 238.857h-39.98l-50.23-163.68h-2.735l-50.23 163.68h-39.98L1197.36 6.41h43.397l60.14 171.88zm224.216 44.083c0-7.062 2.448-13.042 7.346-17.94 4.9-4.898 10.88-7.347 17.94-7.347 7.063 0 13.1 2.45 18.112 7.347 5.012 4.898 7.517 10.878 7.517 17.94 0 7.062-2.505 13.1-7.517 18.11-5.012 5.012-11.05 7.518-18.11 7.518-7.063 0-13.043-2.505-17.94-7.517-4.9-5.01-7.347-11.048-7.347-18.11zm95.71-215.96h40.322v238.854h-40.32V6.41zm206.426 31.095c-23.69 0-43.68 8.428-59.97 25.286-16.288 16.858-24.432 37.303-24.432 61.337 0 24.035 8.144 44.48 24.433 61.338 16.29 16.858 36.28 25.287 59.97 25.287 23.693 0 43.683-8.43 59.97-25.287 16.29-16.858 24.433-37.303 24.433-61.337 0-24.033-8.144-44.48-24.432-61.336-16.287-16.858-36.277-25.286-59.97-25.286zm-89.527 174.784c-24.148-23.577-36.222-52.964-36.222-88.16s12.075-64.583 36.223-88.16C1761.87 12.39 1791.713.6 1827.25.6c35.54 0 65.38 11.79 89.53 35.367 24.146 23.577 36.22 52.964 36.22 88.16s-12.074 64.583-36.22 88.16c-24.15 23.58-53.99 35.368-89.53 35.368-35.537 0-65.38-11.79-89.527-35.367z" fill="#333" fill-rule="evenodd"/></svg>