<?xml version="1.0" encoding="UTF-8" standalone="no"?>
<svg width="1953px" height="248px" viewBox="0 0 1953 248" version="1.1" xmlns="http://www.w3.org/2000/svg" xmlns:xlink="http://www.w3.org/1999/xlink" xmlns:sketch="http://www.bohemiancoding.com/sketch/ns">
    <!-- Generator: Sketch 3.3 (11970) - http://www.bohemiancoding.com/sketch -->
    <title>logotype-c-gray-darker</title>
    <desc>Created with Sketch.</desc>
    <defs></defs>
    <g id="Page-1" stroke="none" stroke-width="1" fill="none" fill-rule="evenodd" sketch:type="MSPage">
        <g id="Resources-/-Swatch" sketch:type="MSArtboardGroup" transform="translate(-1407.000000, -336.000000)">
            <path d="M1407.16671,581.26632 L1407.16671,342.410991 L1447.4885,342.410991 L1447.4885,445.949138 L1566.06189,445.949138 L1566.06189,342.410991 L1606.38367,342.410991 L1606.38367,581.26632 L1566.06189,581.26632 L1566.06189,483.537244 L1447.4885,483.537244 L1447.4885,581.26632 L1407.16671,581.26632 Z M1695.94392,526.934421 L1672.02421,581.26632 L1628.96875,581.26632 L1734.21544,342.410991 L1777.27091,342.410991 L1882.51761,581.26632 L1839.46214,581.26632 L1815.54244,526.934421 L1695.94392,526.934421 Z M1799.14035,489.688025 L1755.74318,391.275529 L1712.346,489.688025 L1799.14035,489.688025 Z M2095.77689,419.979173 C2095.77689,459.38993 2078.57765,484.220613 2044.17867,494.471966 L2106.71161,581.26632 L2055.4551,581.26632 L1998.38952,500.964457 L1945.42446,500.964457 L1945.42446,581.26632 L1905.10268,581.26632 L1905.10268,342.410991 L1993.94729,342.410991 C2030.39655,342.410991 2056.48015,348.56171 2072.19889,360.863334 C2087.91763,373.164957 2095.77689,392.87004 2095.77689,419.979173 L2095.77689,419.979173 Z M2042.12841,453.808469 C2050.32949,446.746426 2054.42997,435.413156 2054.42997,419.808318 C2054.42997,404.203481 2050.21559,393.496673 2041.7867,387.687573 C2033.35781,381.878473 2018.32272,378.973967 1996.68097,378.973967 L1945.42446,378.973967 L1945.42446,464.401481 L1995.65584,464.401481 C2018.43663,464.401481 2033.92733,460.870512 2042.12841,453.808469 L2042.12841,453.808469 Z M2333.981,419.979173 C2333.981,459.38993 2316.78177,484.220613 2282.38278,494.471966 L2344.91572,581.26632 L2293.65922,581.26632 L2236.59364,500.964457 L2183.62858,500.964457 L2183.62858,581.26632 L2143.30679,581.26632 L2143.30679,342.410991 L2232.15141,342.410991 C2268.60066,342.410991 2294.68427,348.56171 2310.40301,360.863334 C2326.12175,373.164957 2333.981,392.87004 2333.981,419.979173 L2333.981,419.979173 Z M2280.33252,453.808469 C2288.53361,446.746426 2292.63409,435.413156 2292.63409,419.808318 C2292.63409,404.203481 2288.4197,393.496673 2279.99081,387.687573 C2271.56192,381.878473 2256.52683,378.973967 2234.88509,378.973967 L2183.62858,378.973967 L2183.62858,464.401481 L2233.85996,464.401481 C2256.64074,464.401481 2272.13144,460.870512 2280.33252,453.808469 L2280.33252,453.808469 Z M2483.00767,373.506606 C2459.31565,373.506606 2439.32582,381.93537 2423.03755,398.79315 C2406.74929,415.65093 2398.60529,436.096378 2398.60529,460.130105 C2398.60529,484.163832 2406.74929,504.60928 2423.03755,521.46706 C2439.32582,538.32484 2459.31565,546.753604 2483.00767,546.753604 C2506.69968,546.753604 2526.68952,538.32484 2542.97778,521.46706 C2559.26604,504.60928 2567.41005,484.163832 2567.41005,460.130105 C2567.41005,436.096378 2559.26604,415.65093 2542.97778,398.79315 C2526.68952,381.93537 2506.69968,373.506606 2483.00767,373.506606 L2483.00767,373.506606 Z M2483.00767,583.65829 C2447.46965,583.65829 2417.62727,571.869411 2393.47963,548.291299 C2369.332,524.713188 2357.25837,495.326417 2357.25837,460.130105 C2357.25837,424.933793 2369.332,395.547022 2393.47963,371.968911 C2417.62727,348.390799 2447.46965,336.60192 2483.00767,336.60192 C2518.54569,336.60192 2548.38807,348.390799 2572.5357,371.968911 C2596.68333,395.547022 2608.75697,424.933793 2608.75697,460.130105 C2608.75697,495.326417 2596.68333,524.713188 2572.5357,548.291299 C2548.38807,571.869411 2518.54569,583.65829 2483.00767,583.65829 L2483.00767,583.65829 Z M2707.89841,514.291149 L2761.20517,342.410991 L2797.42644,342.410991 L2850.73321,514.291149 L2910.87418,342.410991 L2954.27136,342.410991 L2870.8941,581.26632 L2830.91403,581.26632 L2780.68265,417.587203 L2777.94897,417.587203 L2727.71759,581.26632 L2687.73751,581.26632 L2604.36026,342.410991 L2647.75744,342.410991 L2707.89841,514.291149 Z M2932.1146,558.371746 C2932.1146,551.309703 2934.56349,545.329837 2939.46136,540.431968 C2944.35923,535.534099 2950.3391,533.085202 2957.40114,533.085202 C2964.46318,533.085202 2970.5,535.534099 2975.51177,540.431968 C2980.52355,545.329837 2983.0294,551.309703 2983.0294,558.371746 C2983.0294,565.433789 2980.52355,571.470606 2975.51177,576.482379 C2970.5,581.494151 2964.46318,584 2957.40114,584 C2950.3391,584 2944.35923,581.494151 2939.46136,576.482379 C2934.56349,571.470606 2932.1146,565.433789 2932.1146,558.371746 L2932.1146,558.371746 Z M3027.82562,342.410991 L3068.14741,342.410991 L3068.14741,581.26632 L3027.82562,581.26632 L3027.82562,342.410991 Z M3234.2507,373.506606 C3210.55868,373.506606 3190.56885,381.93537 3174.28058,398.79315 C3157.99232,415.65093 3149.84832,436.096378 3149.84832,460.130105 C3149.84832,484.163832 3157.99232,504.60928 3174.28058,521.46706 C3190.56885,538.32484 3210.55868,546.753604 3234.2507,546.753604 C3257.94272,546.753604 3277.93255,538.32484 3294.22081,521.46706 C3310.50908,504.60928 3318.65308,484.163832 3318.65308,460.130105 C3318.65308,436.096378 3310.50908,415.65093 3294.22081,398.79315 C3277.93255,381.93537 3257.94272,373.506606 3234.2507,373.506606 L3234.2507,373.506606 Z M3144.72267,548.291299 C3120.57503,524.713188 3108.5014,495.326417 3108.5014,460.130105 C3108.5014,424.933793 3120.57503,395.547022 3144.72267,371.968911 C3168.8703,348.390799 3198.71268,336.60192 3234.2507,336.60192 C3269.78872,336.60192 3299.6311,348.390799 3323.77873,371.968911 C3347.92637,395.547022 3360,424.933793 3360,460.130105 C3360,495.326417 3347.92637,524.713188 3323.77873,548.291299 C3299.6311,571.869411 3269.78872,583.65829 3234.2507,583.65829 C3198.71268,583.65829 3168.8703,571.869411 3144.72267,548.291299 Z" id="HARROW.IO" fill="#333333" sketch:type="MSShapeGroup"></path>
            <g id="HARROW.IO-+-Logo-Large" sketch:type="MSLayerGroup" transform="translate(831.000000, 251.000000)"></g>
        </g>
    </g>
</svg>